<svg preserveAspectRatio="none" overflow="visible" style="display: block;" width="48" height="48" viewBox="0 0 48 48" fill="none" xmlns="http://www.w3.org/2000/svg">
<g id="map">
<path id="Vector" d="M18 6.4704C17.3793 6.4704 16.7672 6.61483 16.212 6.89226L7.10601 11.4463C6.77384 11.6122 6.49445 11.8674 6.29911 12.1832C6.10377 12.499 6.0002 12.8629 6.00001 13.2343V38.7603C5.99916 39.1016 6.08567 39.4374 6.2513 39.7358C6.41693 40.0342 6.65616 40.2853 6.94624 40.4651C7.23632 40.6449 7.56758 40.7475 7.90852 40.7631C8.24945 40.7787 8.58871 40.7068 8.89401 40.5543L16.212 36.8943C16.7672 36.6168 17.3793 36.4724 18 36.4724C18.6207 36.4724 19.2328 36.6168 19.788 36.8943L28.212 41.1063C28.7672 41.3837 29.3793 41.5281 30 41.5281C30.6207 41.5281 31.2328 41.3837 31.788 41.1063L40.894 36.5523C41.2262 36.3863 41.5056 36.1311 41.7009 35.8153C41.8962 35.4995 41.9998 35.1356 42 34.7643V9.23626C42.0005 8.89514 41.9138 8.55956 41.748 8.26143C41.5822 7.96329 41.3429 7.71251 41.0529 7.53293C40.7629 7.35334 40.4318 7.25092 40.091 7.2354C39.7502 7.21988 39.4112 7.29178 39.106 7.44426L31.788 11.1043C31.2328 11.3817 30.6207 11.5261 30 11.5261C29.3793 11.5261 28.7672 11.3817 28.212 11.1043L19.788 6.89226C19.2328 6.61483 18.6207 6.4704 18 6.4704ZM30 11.5261L30 41.5251M18 6.4704L18 36.4704" stroke="#43B2E5" stroke-width="2" stroke-linecap="round"/>
</g>
</svg>
