<svg preserveAspectRatio="none" overflow="visible" style="display: block;" width="24" height="24" viewBox="0 0 24 24" fill="none" xmlns="http://www.w3.org/2000/svg">
<g id="anchor">
<path id="Vector" d="M12 5.99952V22.0008M12 5.99952C13.1046 5.99952 14 5.10402 14 3.99936C14 2.8947 13.1046 1.9992 12 1.9992C10.8954 1.9992 10 2.8947 10 3.99936C10 5.10402 10.8954 5.99952 12 5.99952ZM19 13.0001L21 12C21 14.3871 20.0518 16.6765 18.364 18.3645C16.6761 20.0524 14.3869 21.0007 12 21.0007C9.61305 21.0007 7.32387 20.0524 5.63604 18.3645C3.94821 16.6765 3 14.3871 3 12L5 13.0001M9 10.9999H15" stroke="#43B2E5" stroke-width="2" stroke-linecap="round"/>
</g>
</svg>
